<svg preserveAspectRatio="none" width="100%" height="100%" overflow="visible" style="display: block;" viewBox="0 0 13.6437 13.12" fill="none" xmlns="http://www.w3.org/2000/svg">
<path id="Star 4 (Stroke)" fill-rule="evenodd" clip-rule="evenodd" d="M5.43491 1.00768C5.87146 -0.335895 7.77227 -0.335894 8.20882 1.00768L9.10013 3.75085C9.12802 3.83669 9.20801 3.8948 9.29827 3.8948H12.1826C13.5953 3.8948 14.1827 5.70258 13.0398 6.53295L10.7063 8.22832C10.6333 8.28137 10.6027 8.37541 10.6306 8.46124L11.5219 11.2044C11.9585 12.548 10.4207 13.6653 9.27779 12.8349L6.94432 11.1395C6.8713 11.0865 6.77243 11.0865 6.69941 11.1395L4.36593 12.8349C3.22302 13.6653 1.68524 12.548 2.12179 11.2044L3.0131 8.46124C3.04099 8.37541 3.01043 8.28137 2.93742 8.22832L0.603942 6.53295C-0.538974 5.70257 0.0484081 3.8948 1.46113 3.8948H4.34546C4.43572 3.8948 4.51571 3.83669 4.5436 3.75085L5.43491 1.00768ZM7.02 1.39396C6.95763 1.20201 6.68609 1.20202 6.62373 1.39395L5.73242 4.13712C5.53719 4.73798 4.97725 5.1448 4.34546 5.1448H1.46113C1.25931 5.1448 1.1754 5.40306 1.33867 5.52168L3.67215 7.21705C4.18327 7.58841 4.39715 8.24665 4.20192 8.84752L3.31061 11.5907C3.24825 11.7826 3.46793 11.9422 3.6312 11.8236L5.96468 10.1282C6.4758 9.75688 7.16792 9.75688 7.67905 10.1282L10.0125 11.8236C10.1758 11.9422 10.3955 11.7826 10.3331 11.5907L9.44181 8.84752C9.24658 8.24665 9.46045 7.58841 9.97158 7.21705L12.3051 5.52168C12.4683 5.40305 12.3844 5.1448 12.1826 5.1448H9.29827C8.66648 5.1448 8.10654 4.73799 7.91131 4.13712L7.02 1.39396Z" fill="var(--fill-0, #676777)"/>
</svg>
