<svg preserveAspectRatio="none" width="100%" height="100%" overflow="visible" style="display: block;" viewBox="0 0 12.4477 12.4477" fill="none" xmlns="http://www.w3.org/2000/svg">
<path id="Union" fill-rule="evenodd" clip-rule="evenodd" d="M8.53697 0.53697C9.25293 -0.178991 10.4137 -0.178989 11.1297 0.536971L11.9107 1.31802C12.6267 2.03398 12.6267 3.19478 11.9107 3.91075L10.854 4.96752C10.8541 4.96739 10.8538 4.96766 10.854 4.96752C10.8538 4.96766 10.8533 4.96821 10.8531 4.96835L3.91074 11.9107C3.56693 12.2546 3.10061 12.4477 2.61438 12.4477H0.833333C0.373096 12.4477 0 12.0746 0 11.6144V9.83333C0 9.3471 0.193154 8.88079 0.536971 8.53697L8.53697 0.53697ZM9.24408 1.24408C9.56952 0.918641 10.0972 0.918641 10.4226 1.24408L11.2036 2.02513C11.5291 2.35056 11.5291 2.8782 11.2036 3.20364L10.5 3.90728L8.54044 1.94772L9.24408 1.24408ZM9.79289 4.61438L3.20364 11.2036C3.04736 11.3599 2.8354 11.4477 2.61438 11.4477H1V9.83333C1 9.61232 1.0878 9.40036 1.24408 9.24408L7.83333 2.65482L9.79289 4.61438Z" fill="var(--fill-0, #1E1E36)"/>
</svg>
