<svg preserveAspectRatio="none" width="100%" height="100%" overflow="visible" style="display: block;" viewBox="0 0 13.3333 13.3333" fill="none" xmlns="http://www.w3.org/2000/svg">
<g id="Union">
<path d="M6.66667 4.83333C6.94281 4.83333 7.16667 5.05719 7.16667 5.33333V8.83333H8C8.27614 8.83333 8.5 9.05719 8.5 9.33333C8.5 9.60947 8.27614 9.83333 8 9.83333H5.33333C5.05719 9.83333 4.83333 9.60947 4.83333 9.33333C4.83333 9.05719 5.05719 8.83333 5.33333 8.83333H6.16667V5.83333H5.33333C5.05719 5.83333 4.83333 5.60948 4.83333 5.33333C4.83333 5.05719 5.05719 4.83333 5.33333 4.83333H6.66667Z" fill="var(--fill-0, #1E1E36)"/>
<path d="M6.66667 4C7.03486 4 7.33333 3.70152 7.33333 3.33333C7.33333 2.96514 7.03486 2.66667 6.66667 2.66667C6.29848 2.66667 6 2.96514 6 3.33333C6 3.70152 6.29848 4 6.66667 4Z" fill="var(--fill-0, #1E1E36)"/>
<path fill-rule="evenodd" clip-rule="evenodd" d="M6.66667 13.3333C10.3486 13.3333 13.3333 10.3486 13.3333 6.66667C13.3333 2.98477 10.3486 0 6.66667 0C2.98477 0 0 2.98477 0 6.66667C0 10.3486 2.98477 13.3333 6.66667 13.3333ZM6.66667 12.3333C9.79628 12.3333 12.3333 9.79628 12.3333 6.66667C12.3333 3.53705 9.79628 1 6.66667 1C3.53705 1 1 3.53705 1 6.66667C1 9.79628 3.53705 12.3333 6.66667 12.3333Z" fill="var(--fill-0, #1E1E36)"/>
</g>
</svg>
