<svg preserveAspectRatio="none" width="100%" height="100%" overflow="visible" style="display: block;" viewBox="0 0 12 13.3333" fill="none" xmlns="http://www.w3.org/2000/svg">
<path id="Union" fill-rule="evenodd" clip-rule="evenodd" d="M3.33333 2V2.33333H0.5C0.223858 2.33333 0 2.55719 0 2.83333C0 3.10948 0.223858 3.33333 0.5 3.33333H1.41667L2.44768 11.5814C2.57278 12.5823 3.42358 13.3333 4.43223 13.3333H7.56777C8.57642 13.3333 9.42722 12.5823 9.55233 11.5814L10.5833 3.33333H11.5C11.7761 3.33333 12 3.10948 12 2.83333C12 2.55719 11.7761 2.33333 11.5 2.33333H8.66667V2C8.66667 0.895431 7.77124 0 6.66667 0H5.33333C4.22876 0 3.33333 0.89543 3.33333 2ZM6.66667 1H5.33333C4.78105 1 4.33333 1.44772 4.33333 2V2.33333H7.66667V2C7.66667 1.44772 7.21895 1 6.66667 1ZM3.43995 11.4574L2.46612 3.66667H9.53388L8.56005 11.4574C8.49749 11.9578 8.07209 12.3333 7.56777 12.3333H4.43223C3.92791 12.3333 3.50251 11.9578 3.43995 11.4574Z" fill="var(--fill-0, #1E1E36)"/>
</svg>
