<svg preserveAspectRatio="none" width="100%" height="100%" overflow="visible" style="display: block;" viewBox="0 0 14.7917 14.7917" fill="none" xmlns="http://www.w3.org/2000/svg">
<path id="Union" fill-rule="evenodd" clip-rule="evenodd" d="M9.49258 10.3765C8.49187 11.1835 7.21902 11.6667 5.83333 11.6667C2.61167 11.6667 0 9.055 0 5.83333C0 2.61167 2.61167 0 5.83333 0C9.055 0 11.6667 2.61167 11.6667 5.83333C11.6667 7.21902 11.1835 8.49187 10.3765 9.49258L14.6086 13.7247C14.8527 13.9688 14.8527 14.3645 14.6086 14.6086C14.3645 14.8527 13.9688 14.8527 13.7247 14.6086L9.49258 10.3765ZM10.4167 5.83333C10.4167 8.36464 8.36464 10.4167 5.83333 10.4167C3.30203 10.4167 1.25 8.36464 1.25 5.83333C1.25 3.30203 3.30203 1.25 5.83333 1.25C8.36464 1.25 10.4167 3.30203 10.4167 5.83333Z" fill="var(--fill-0, #9595A0)"/>
</svg>
