<svg preserveAspectRatio="none" width="100%" height="100%" overflow="visible" style="display: block;" viewBox="0 0 13 11.6667" fill="none" xmlns="http://www.w3.org/2000/svg">
<g id="Union">
<path d="M6.66667 0.5C6.66667 0.223858 6.89052 0 7.16667 0H11.1667C11.4428 0 11.6667 0.223858 11.6667 0.5C11.6667 0.776142 11.4428 1 11.1667 1H9.66667V10.6667H11.1667C11.4428 10.6667 11.6667 10.8905 11.6667 11.1667C11.6667 11.4428 11.4428 11.6667 11.1667 11.6667H7.16667C6.89052 11.6667 6.66667 11.4428 6.66667 11.1667C6.66667 10.8905 6.89052 10.6667 7.16667 10.6667H8.66667V1H7.16667C6.89052 1 6.66667 0.776142 6.66667 0.5Z" fill="var(--fill-0, #1E1E36)"/>
<path d="M1.16667 3.66667C1.07462 3.66667 1 3.74129 1 3.83333V7.83333C1 7.92538 1.07462 8 1.16667 8H7.16667C7.44281 8 7.66667 8.22386 7.66667 8.5C7.66667 8.77614 7.44281 9 7.16667 9H1.16667C0.522334 9 0 8.47767 0 7.83333V3.83333C0 3.189 0.522334 2.66667 1.16667 2.66667H7.16667C7.44281 2.66667 7.66667 2.89052 7.66667 3.16667C7.66667 3.44281 7.44281 3.66667 7.16667 3.66667H1.16667Z" fill="var(--fill-0, #1E1E36)"/>
<path d="M12 3.83333C12 3.74129 11.9254 3.66667 11.8333 3.66667H11.1667C10.8905 3.66667 10.6667 3.44281 10.6667 3.16667C10.6667 2.89052 10.8905 2.66667 11.1667 2.66667H11.8333C12.4777 2.66667 13 3.189 13 3.83333V7.83333C13 8.47767 12.4777 9 11.8333 9H11.1667C10.8905 9 10.6667 8.77614 10.6667 8.5C10.6667 8.22386 10.8905 8 11.1667 8H11.8333C11.9254 8 12 7.92538 12 7.83333V3.83333Z" fill="var(--fill-0, #1E1E36)"/>
</g>
</svg>
