<svg preserveAspectRatio="none" width="100%" height="100%" overflow="visible" style="display: block;" viewBox="0 0 11.25 11.25" fill="none" xmlns="http://www.w3.org/2000/svg">
<path id="Union" d="M6.25 0.625C6.25 0.279822 5.97018 0 5.625 0C5.27982 0 5 0.279822 5 0.625V5H0.625C0.279822 5 0 5.27982 0 5.625C0 5.97018 0.279822 6.25 0.625 6.25H5V10.625C5 10.9702 5.27982 11.25 5.625 11.25C5.97018 11.25 6.25 10.9702 6.25 10.625V6.25H10.625C10.9702 6.25 11.25 5.97018 11.25 5.625C11.25 5.27982 10.9702 5 10.625 5H6.25V0.625Z" fill="var(--fill-0, #9595A0)"/>
</svg>
