<svg preserveAspectRatio="none" width="100%" height="100%" overflow="visible" style="display: block;" viewBox="0 0 9.04347 9.04347" fill="none" xmlns="http://www.w3.org/2000/svg">
<path id="Vector" d="M9.04347 1.76384H6.14578C6.32466 1.57653 6.43475 1.32294 6.43475 1.04347C6.43475 0.467188 5.96756 0 5.39128 0C5.02822 0 4.70863 0.1855 4.52172 0.466782C4.33481 0.1855 4.01519 0 3.65216 0C3.07588 0 2.60869 0.467188 2.60869 1.04347C2.60869 1.32294 2.71878 1.57656 2.89766 1.76384H0C0 2.53225 0.669282 3.15513 1.43763 3.15513H1.39125C1.39125 3.92356 2.01416 4.54647 2.78259 4.54647C2.78259 4.79534 2.84819 5.02866 2.96269 5.23066L1.80863 6.38475L2.69406 7.27012L3.95006 6.01416C3.99925 6.03219 4.05016 6.04666 4.10272 6.0565L3.34375 7.77009L4.52172 9.04347L5.69969 7.77003L4.94072 6.05644C4.99331 6.04659 5.04419 6.03216 5.09338 6.01409L6.34938 7.27006L7.23481 6.38466L6.08072 5.23056C6.19525 5.02859 6.26084 4.79525 6.26084 4.54637C7.02925 4.54637 7.65216 3.9235 7.65216 3.15503H7.60581C8.37416 3.15509 9.04347 2.53225 9.04347 1.76384V1.76384Z" fill="var(--fill-0, black)"/>
</svg>
