<svg preserveAspectRatio="none" width="100%" height="100%" overflow="visible" style="display: block;" viewBox="0 0 6.70833 6.70833" fill="none" xmlns="http://www.w3.org/2000/svg">
<path id="Union" d="M6.58019 0.746859C6.75105 0.576005 6.75105 0.298995 6.58019 0.128141C6.40934 -0.0427136 6.13233 -0.0427136 5.96147 0.128141L3.35417 2.73545L0.74686 0.128141C0.576006 -0.0427136 0.298996 -0.0427136 0.128142 0.128141C-0.0427128 0.298995 -0.0427128 0.576005 0.128142 0.746859L2.73545 3.35417L0.128141 5.96147C-0.0427136 6.13233 -0.0427136 6.40934 0.128141 6.58019C0.298995 6.75105 0.576005 6.75105 0.746859 6.58019L3.35417 3.97288L5.96147 6.58019C6.13233 6.75105 6.40934 6.75105 6.58019 6.58019C6.75105 6.40934 6.75105 6.13233 6.58019 5.96147L3.97289 3.35417L6.58019 0.746859Z" fill="var(--fill-0, #115A7C)"/>
</svg>
