<svg preserveAspectRatio="none" width="100%" height="100%" overflow="visible" style="display: block;" viewBox="0 0 12 12" fill="none" xmlns="http://www.w3.org/2000/svg">
<g id="caret vertical">
<g id="Vector">
<path d="M3.10699 4.24933L5.66681 1.15852C5.7081 1.10879 5.75929 1.06888 5.81687 1.04152C5.87444 1.01416 5.93705 1 6.00041 1C6.06377 1 6.12638 1.01416 6.18395 1.04152C6.24153 1.06888 6.29272 1.10879 6.33401 1.15852L8.89344 4.24933C9.13758 4.54442 8.93524 5 8.55984 5H3.4402C3.0648 5 2.86207 4.54442 3.10699 4.24933Z" fill="#4B4B5F"/>
<path d="M3.10699 7.75067L5.66681 10.8415C5.7081 10.8912 5.75929 10.9311 5.81687 10.9585C5.87444 10.9858 5.93705 11 6.00041 11C6.06377 11 6.12638 10.9858 6.18395 10.9585C6.24153 10.9311 6.29272 10.8912 6.33401 10.8415L8.89344 7.75067C9.13758 7.45558 8.93524 7 8.55984 7H3.4402C3.0648 7 2.86207 7.45558 3.10699 7.75067Z" fill="var(--fill-0, #B3B3B6)"/>
</g>
</g>
</svg>
