<svg preserveAspectRatio="none" width="100%" height="100%" overflow="visible" style="display: block;" viewBox="0 0 13.5 13.5" fill="none" xmlns="http://www.w3.org/2000/svg">
<path id="Union" d="M7.5 0.75C7.5 0.335786 7.16421 0 6.75 0C6.33579 0 6 0.335786 6 0.75V6H0.75C0.335786 6 0 6.33579 0 6.75C0 7.16421 0.335786 7.5 0.75 7.5H6V12.75C6 13.1642 6.33579 13.5 6.75 13.5C7.16421 13.5 7.5 13.1642 7.5 12.75V7.5H12.75C13.1642 7.5 13.5 7.16421 13.5 6.75C13.5 6.33579 13.1642 6 12.75 6H7.5V0.75Z" fill="var(--fill-0, white)"/>
</svg>
