<svg preserveAspectRatio="none" width="100%" height="100%" overflow="visible" style="display: block;" viewBox="0 0 16 16" fill="none" xmlns="http://www.w3.org/2000/svg">
<g id="table-columns">
<g id="Vector">
<path fill-rule="evenodd" clip-rule="evenodd" d="M3.83366 3.6665C3.74161 3.6665 3.66699 3.74112 3.66699 3.83317V12.1667C3.66699 12.2587 3.74161 12.3333 3.83366 12.3333H12.167C12.259 12.3333 12.3337 12.2587 12.3337 12.1667V3.83317C12.3337 3.74112 12.259 3.6665 12.167 3.6665H3.83366ZM2.66699 3.83317C2.66699 3.18884 3.18933 2.6665 3.83366 2.6665H12.167C12.8113 2.6665 13.3337 3.18884 13.3337 3.83317V12.1667C13.3337 12.811 12.8113 13.3333 12.167 13.3333H3.83366C3.18933 13.3333 2.66699 12.811 2.66699 12.1667V3.83317Z" fill="#676777"/>
<path fill-rule="evenodd" clip-rule="evenodd" d="M6.16699 2.83317C6.44313 2.83317 6.66699 3.05703 6.66699 3.33317V12.6665C6.66699 12.9426 6.44313 13.1665 6.16699 13.1665C5.89085 13.1665 5.66699 12.9426 5.66699 12.6665V3.33317C5.66699 3.05703 5.89085 2.83317 6.16699 2.83317Z" fill="#676777"/>
<path fill-rule="evenodd" clip-rule="evenodd" d="M9.83366 2.83317C10.1098 2.83317 10.3337 3.05703 10.3337 3.33317V12.6665C10.3337 12.9426 10.1098 13.1665 9.83366 13.1665C9.55752 13.1665 9.33366 12.9426 9.33366 12.6665V3.33317C9.33366 3.05703 9.55752 2.83317 9.83366 2.83317Z" fill="#676777"/>
</g>
</g>
</svg>
