<svg preserveAspectRatio="none" width="100%" height="100%" overflow="visible" style="display: block;" viewBox="0 0 7.875 7.875" fill="none" xmlns="http://www.w3.org/2000/svg">
<path id="Union" d="M4.375 0.4375C4.375 0.195875 4.17912 0 3.9375 0C3.69588 0 3.5 0.195875 3.5 0.4375V3.5H0.4375C0.195875 3.5 0 3.69588 0 3.9375C0 4.17912 0.195875 4.375 0.4375 4.375H3.5V7.4375C3.5 7.67912 3.69588 7.875 3.9375 7.875C4.17912 7.875 4.375 7.67912 4.375 7.4375V4.375H7.4375C7.67912 4.375 7.875 4.17912 7.875 3.9375C7.875 3.69588 7.67912 3.5 7.4375 3.5H4.375V0.4375Z" fill="var(--fill-0, #4B4B5F)"/>
</svg>
