<svg preserveAspectRatio="none" width="100%" height="100%" overflow="visible" style="display: block;" viewBox="0 0 16.472 6.94542" fill="none" xmlns="http://www.w3.org/2000/svg">
<path id="ApplePay" fill-rule="evenodd" clip-rule="evenodd" d="M2.19893 1.28864C2.50781 1.31507 2.81669 1.13004 3.00975 0.895439C3.19958 0.654232 3.32507 0.33042 3.29289 0C3.0194 0.0132168 2.68156 0.185035 2.4885 0.426242C2.31154 0.634407 2.16032 0.971436 2.19893 1.28864ZM5.87337 5.54444V0.393198H7.75563C8.72733 0.393198 9.40623 1.08047 9.40623 2.08495C9.40623 3.08942 8.71446 3.78331 7.72989 3.78331H6.65202V5.54444H5.87337ZM3.28966 1.35143C3.01754 1.33535 2.76924 1.43547 2.56868 1.51635C2.43962 1.56839 2.33032 1.61246 2.24717 1.61246C2.15387 1.61246 2.04006 1.56603 1.91228 1.51391C1.74485 1.4456 1.55343 1.36751 1.3527 1.37126C0.892589 1.37786 0.464656 1.6455 0.229776 2.07175C-0.252856 2.92423 0.104292 4.18643 0.570835 4.88032C0.799281 5.22395 1.07277 5.60063 1.43314 5.58741C1.59168 5.58127 1.70572 5.53157 1.82374 5.48014C1.95962 5.42093 2.10078 5.35942 2.32118 5.35942C2.53394 5.35942 2.66892 5.41933 2.79849 5.47684C2.9217 5.53152 3.04001 5.58403 3.21566 5.58081C3.58889 5.5742 3.82377 5.23717 4.05222 4.89353C4.29875 4.52471 4.40708 4.16477 4.42352 4.11015L4.42545 4.10383C4.42506 4.10343 4.42204 4.10201 4.41671 4.0995L4.41665 4.09947L4.41664 4.09947C4.33422 4.06072 3.70433 3.76459 3.69829 2.97049C3.69222 2.30396 4.1979 1.96625 4.27751 1.91309L4.27751 1.91309L4.27752 1.91308C4.28236 1.90985 4.28562 1.90767 4.2871 1.90654C3.96534 1.41752 3.46341 1.36465 3.28966 1.35143ZM10.8284 5.58408C11.3175 5.58408 11.7712 5.32966 11.9771 4.92654H11.9932V5.54443H12.7139V2.98037C12.7139 2.23693 12.1347 1.75782 11.2435 1.75782C10.4166 1.75782 9.80524 2.24353 9.78271 2.91098H10.4841C10.5421 2.59378 10.8284 2.38561 11.221 2.38561C11.6972 2.38561 11.9642 2.6136 11.9642 3.03324V3.3174L10.9925 3.37687C10.0884 3.43304 9.59931 3.81303 9.59931 4.47387C9.59931 5.14132 10.1045 5.58408 10.8284 5.58408ZM11.0375 4.97281C10.6225 4.97281 10.3586 4.76795 10.3586 4.45405C10.3586 4.13024 10.6128 3.9419 11.0986 3.91216L11.9642 3.85599V4.14676C11.9642 4.62917 11.5652 4.97281 11.0375 4.97281ZM15.1045 5.746C14.7924 6.64805 14.4353 6.94542 13.6759 6.94542C13.618 6.94542 13.425 6.93882 13.3799 6.9256V6.30771C13.4282 6.31432 13.5472 6.32093 13.6084 6.32093C13.9526 6.32093 14.1457 6.17224 14.2647 5.78565L14.3355 5.55766L13.0163 1.80739H13.8304L14.7474 4.85056H14.7635L15.6805 1.80739H16.472L15.1045 5.746ZM6.65194 1.06726H7.54964C8.22532 1.06726 8.61143 1.43733 8.61143 2.08826C8.61143 2.73919 8.22532 3.11256 7.54642 3.11256H6.65194V1.06726Z" fill="var(--fill-0, black)"/>
</svg>
